<svg width="308" height="40" viewBox="0 0 308 40" fill="none" xmlns="http://www.w3.org/2000/svg">
<path d="M198.579 15.7109H196.235L192.917 24.2274L189.344 15.7109H186.933L191.724 27.2651L191.183 28.6043C190.75 29.6392 190.282 30.0775 189.216 30.0775C188.845 30.0775 188.48 29.9984 188.114 29.9375V31.8977C188.644 31.9768 189.174 32.0194 189.728 32.0194C192.15 32.0194 192.735 30.2662 193.49 28.373L193.52 28.2938L198.573 15.7231L198.579 15.7109Z" fill="#241F21"/>
<path d="M61.658 11.4844H59.3569V18.3754H51.431V11.4844H49.1055V27.3302H51.431V20.4209H59.3569V27.3302H61.658V11.4844Z" fill="#241F21"/>
<path d="M74.3567 21.479C74.3567 17.9483 72.3478 15.6289 69.0971 15.6289C65.5907 15.6289 63.6061 18.1674 63.6061 21.5216C63.6061 24.8759 65.7429 27.4387 69.0971 27.4387C72.3296 27.457 73.7906 25.4298 74.0645 23.7618H72.08C71.6356 24.9002 70.5155 25.5577 69.0788 25.5577C67.5569 25.5394 66.0351 24.3949 65.9072 22.2643H74.3141C74.3567 21.9904 74.3567 21.7164 74.3567 21.4851V21.479ZM72.0982 20.5294H65.9498C66.2238 18.7518 67.2404 17.5282 69.0788 17.5282C70.9173 17.5282 71.8913 18.7092 72.0982 20.5294Z" fill="#241F21"/>
<path d="M86.7631 27.3309V25.4925C86.2335 25.5108 85.8743 25.1516 85.8743 23.9706C85.8743 23.3984 85.856 21.5174 85.856 19.8494C85.856 17.0369 84.0785 15.582 81.2721 15.582C78.0579 15.582 76.6882 17.5666 76.5178 19.6363H78.5875C78.7336 18.2179 79.7929 17.4813 81.2052 17.4813C82.7027 17.4813 83.6584 18.1997 83.6584 19.8068V20.1233L80.9982 20.3364C77.9118 20.5677 76.2256 21.9618 76.2256 24.0315C76.2256 26.1013 77.8509 27.4527 80.0729 27.4527C81.7226 27.4527 83.2445 26.7526 83.8776 25.8456C84.2185 26.9413 85.1012 27.197 86.0508 27.3005C86.3065 27.3188 86.5378 27.3188 86.7692 27.3188L86.7631 27.3309ZM83.6584 23.5932C83.3419 24.6707 82.0087 25.6021 80.5295 25.6021C79.5128 25.6021 78.5449 25.0116 78.5449 23.9524C78.5449 22.9601 79.3485 22.1992 81.3574 22.0287L83.6584 21.8157V23.5932Z" fill="#241F21"/>
<path d="M88.6867 27.3302H90.9452V11.4844H88.705L88.6867 27.3302Z" fill="#241F21"/>
<path d="M98.8893 27.3545H100.241V25.37H98.8893C97.5988 25.37 97.2214 24.7978 97.2214 23.702V17.5719L100.137 17.5902V15.6665H97.264V11.4844H94.9811V15.6665H93.1001V17.5658H94.9811L94.9629 23.9029C94.9629 26.9041 96.7404 27.3485 98.8954 27.3485L98.8893 27.3545Z" fill="#241F21"/>
<path d="M108.69 15.6056C107.235 15.6056 105.756 16.2387 104.91 17.2553V11.4844H102.457V27.3302H104.91V20.2321C104.91 18.7103 106.408 17.7363 108.015 17.7363C109.622 17.7363 110.511 18.6007 110.511 20.1043V27.3302H112.964V19.8304C112.964 17.1884 111.314 15.6056 108.696 15.6056H108.69Z" fill="#241F21"/>
<path d="M126.654 16.324C126.654 13.8281 124.646 11.4844 122.131 11.4844H115.35V27.3302H117.675V21.1209H122.131C124.646 21.1209 126.654 18.8625 126.654 16.324ZM124.542 16.3422C124.542 17.8641 123.379 19.2155 121.943 19.2155H117.675V13.4872H121.943C123.379 13.4872 124.542 14.8812 124.542 16.3422Z" fill="#241F21"/>
<path d="M138.002 27.3309V25.4925C137.472 25.5108 137.113 25.1516 137.113 23.9706C137.113 23.3984 137.089 21.5174 137.089 19.8494C137.089 17.0369 135.311 15.582 132.505 15.582C129.29 15.582 127.921 17.5666 127.75 19.6363H129.82C129.966 18.2179 131.025 17.4813 132.438 17.4813C133.935 17.4813 134.891 18.1997 134.891 19.8068V20.1233L132.231 20.3364C129.144 20.5677 127.458 21.9618 127.458 24.0315C127.458 26.1013 129.083 27.4527 131.305 27.4527C132.955 27.4527 134.477 26.7526 135.11 25.8456C135.451 26.9413 136.334 27.197 137.289 27.3005C137.545 27.3188 137.776 27.3188 138.008 27.3188L138.002 27.3309ZM134.897 23.5932C134.58 24.6707 133.247 25.6021 131.768 25.6021C130.751 25.6021 129.783 25.0116 129.783 23.9524C129.783 22.9601 130.587 22.1992 132.596 22.0287L134.897 21.8157V23.5932Z" fill="#241F21"/>
<path d="M144.296 27.3545H145.648V25.37H144.296C143.006 25.37 142.628 24.7978 142.628 23.702V17.5719L145.544 17.5902V15.6665H142.671V11.4844H140.388V15.6665H138.507V17.5658H140.388L140.37 23.9029C140.37 26.9041 142.147 27.3485 144.302 27.3485L144.296 27.3545Z" fill="#241F21"/>
<path d="M153.994 15.6056C152.533 15.6056 151.059 16.2387 150.213 17.2553V11.4844H147.76V27.3302H150.213V20.2321C150.213 18.7103 151.711 17.7363 153.318 17.7363C154.925 17.7363 155.814 18.6007 155.814 20.1043V27.3302H158.267V19.8304C158.267 17.1884 156.617 15.6056 154 15.6056H153.994Z" fill="#241F21"/>
<path d="M175.86 15.75H173.157L170.941 24.4978L168.719 15.75H166.522L164.281 24.4795L161.938 15.75H159.211L162.827 27.3285H165.554L167.538 19.9808L169.547 27.3285H172.268L175.86 15.75Z" fill="#241F21"/>
<path d="M187.085 27.3309V25.4925C186.556 25.5108 186.196 25.1516 186.196 23.9706C186.196 23.3984 186.178 21.5174 186.178 19.8494C186.178 17.0369 184.401 15.582 181.594 15.582C178.38 15.582 177.01 17.5666 176.84 19.6363H178.91C179.056 18.2179 180.115 17.4813 181.527 17.4813C183.025 17.4813 183.981 18.1997 183.981 19.8068V20.1233L181.32 20.3364C178.234 20.5677 176.548 21.9618 176.548 24.0315C176.548 26.1013 178.173 27.4527 180.395 27.4527C182.045 27.4527 183.567 26.7526 184.2 25.8456C184.541 26.9413 185.423 27.197 186.379 27.3005C186.635 27.3188 186.866 27.3188 187.097 27.3188L187.085 27.3309ZM183.981 23.5932C183.664 24.6707 182.331 25.6021 180.852 25.6021C179.835 25.6021 178.867 25.0116 178.867 23.9524C178.867 22.9601 179.671 22.1992 181.68 22.0287L183.981 21.8157V23.5932Z" fill="#241F21"/>
<path d="M203.924 27.4971C206.566 27.4971 208.38 25.9996 208.38 23.8629C208.38 21.5618 206.352 20.8191 204.618 20.4173C203.181 20.0764 201.915 19.8025 201.915 18.7068C201.915 17.7571 202.889 17.331 203.984 17.3736C204.788 17.4162 205.908 17.818 206.139 18.9563H208.191C207.96 16.6553 206.054 15.5352 203.82 15.5352C201.367 15.5352 199.449 16.844 199.449 18.9807C199.449 21.1174 201.415 21.7688 203.211 22.1523C204.751 22.4932 205.981 22.8889 205.981 24.009C205.981 24.983 205.202 25.677 203.887 25.7013C202.554 25.7439 201.391 24.8369 201.184 23.7777H199.114C199.26 25.4456 200.74 27.4971 203.93 27.4971H203.924Z" fill="#241F21"/>
<path d="M24.5651 29.332L24.5002 37.8356C24.5002 37.9797 24.3706 38.0962 24.2173 38.0962C24.07 38.0962 23.9462 37.9853 23.9403 37.8467L23.5277 29.3542C23.5159 29.0825 23.734 28.8553 24.0228 28.8442C24.3116 28.8331 24.5533 29.0382 24.5651 29.3098C24.5651 29.3209 24.5651 29.3265 24.5651 29.3375" fill="#00B3AA"/>
<path d="M11.6919 34.4709L11.739 36.1561C11.739 36.1838 11.7626 36.206 11.798 36.206C11.8275 36.206 11.851 36.1838 11.851 36.1561L11.8982 34.4709C11.8982 34.4154 11.8569 34.3711 11.798 34.3711C11.739 34.3711 11.6919 34.4099 11.6919 34.4653" fill="#00B3AA"/>
<path d="M13.301 32.3446L13.4542 37.4501C13.4542 37.5388 13.5308 37.6053 13.6252 37.6053C13.7136 37.6053 13.7843 37.5332 13.7902 37.4556L13.9258 32.3501C13.9258 32.1894 13.7961 32.0508 13.6193 32.0508C13.4483 32.0508 13.3069 32.1727 13.301 32.339C13.301 32.339 13.301 32.3501 13.301 32.3557" fill="#00B3AA"/>
<path d="M28.249 34.4748L28.2019 36.16C28.2019 36.1877 28.1783 36.2099 28.1429 36.2099C28.1135 36.2099 28.0899 36.1877 28.0899 36.16L28.0427 34.4748C28.0427 34.4193 28.084 34.375 28.1429 34.375C28.2019 34.375 28.249 34.4138 28.249 34.4692" fill="#00B3AA"/>
<path d="M26.634 32.3446L26.4807 37.4501C26.4807 37.5388 26.4041 37.6053 26.3098 37.6053C26.2213 37.6053 26.1506 37.5332 26.1447 37.4556L26.0092 32.3501C26.0092 32.1894 26.1388 32.0508 26.3157 32.0508C26.4866 32.0508 26.6281 32.1727 26.634 32.339C26.634 32.339 26.634 32.3501 26.634 32.3557" fill="#00B3AA"/>
<path d="M22.7202 26.4324L22.4196 36.721C22.4196 36.8984 22.2604 37.037 22.0718 37.0315C21.8891 37.0315 21.7476 36.8873 21.7417 36.721L21.4647 26.4324C21.4588 26.1054 21.7299 25.8338 22.0777 25.8282C22.4255 25.8227 22.7143 26.0777 22.7202 26.4047C22.7202 26.4158 22.7202 26.4269 22.7202 26.438" fill="#00B3AA"/>
<path d="M16.2482 29.4678L15.9947 37.9658C15.9947 38.11 15.8592 38.2264 15.7059 38.2208C15.5585 38.2208 15.4407 38.1044 15.4348 37.9658L15.2049 29.4678C15.199 29.1961 15.423 28.9744 15.7118 28.9689C16.0006 28.9633 16.2364 29.174 16.2423 29.4456C16.2423 29.4511 16.2423 29.4622 16.2423 29.4733" fill="#00B3AA"/>
<path d="M18.4821 26.4288L18.1815 36.7174C18.1815 36.8948 18.0224 37.0334 17.8338 37.0278C17.651 37.0278 17.5096 36.8837 17.5037 36.7174L17.2267 26.4288C17.2208 26.1017 17.4919 25.8301 17.8397 25.8246C18.1874 25.8135 18.4763 26.074 18.4821 26.4011C18.4821 26.4122 18.4821 26.4232 18.4821 26.4343" fill="#00B3AA"/>
<path d="M20.4921 25.2725L20.2387 33.7705C20.2387 33.9146 20.1031 34.0311 19.9499 34.0255C19.8025 34.0255 19.6846 33.9091 19.6787 33.7705L19.4488 25.2725C19.4429 25.0008 19.6669 24.7791 19.9558 24.7735C20.2446 24.768 20.4803 24.9787 20.4862 25.2503C20.4862 25.2558 20.4862 25.2669 20.4862 25.278" fill="#00B3AA"/>
<path d="M31.0842 18.6353L39.6605 21.3238C39.8078 21.3682 39.8844 21.5178 39.8373 21.6564C39.7901 21.7895 39.6428 21.8615 39.5013 21.8283L30.7836 19.5721C30.5066 19.5 30.3475 19.2284 30.4182 18.9734C30.4948 18.7129 30.7836 18.5632 31.0548 18.6353C31.0666 18.6353 31.0725 18.6353 31.0842 18.6408" fill="#00B3AA"/>
<path d="M32.3161 31.7447L34.0372 32.2215C34.0372 32.2215 34.0962 32.2159 34.1079 32.1882C34.1138 32.1605 34.102 32.1328 34.0726 32.1272L32.3809 31.5673C32.3279 31.5507 32.2689 31.5784 32.2512 31.6283C32.2336 31.6782 32.263 31.7336 32.3161 31.7503" fill="#00B3AA"/>
<path d="M30.6539 29.6435L35.8645 31.0848C35.9529 31.107 36.0472 31.0627 36.0708 30.9795C36.0943 30.8964 36.0472 30.8132 35.9647 30.7855L30.8425 29.0837C30.6775 29.0282 30.5006 29.1114 30.4417 29.2611C30.3827 29.4163 30.4712 29.5826 30.6303 29.638C30.6303 29.638 30.6421 29.638 30.648 29.638" fill="#00B3AA"/>
<path d="M37.4324 16.9298L39.1241 17.4953C39.1241 17.4953 39.1654 17.5341 39.1595 17.5618C39.1477 17.5895 39.1182 17.6006 39.0946 17.5951L37.3735 17.1128C37.3204 17.0961 37.291 17.0463 37.3028 16.9908C37.3204 16.9409 37.3794 16.9132 37.4324 16.9243" fill="#00B3AA"/>
<path d="M34.7741 17.7123L39.8903 19.4252C39.9788 19.4529 40.02 19.5416 39.9905 19.6248C39.9611 19.7024 39.8727 19.7467 39.7842 19.7245L34.5796 18.2722C34.4145 18.2278 34.3202 18.0615 34.3674 17.9063C34.4145 17.7511 34.5913 17.6624 34.7564 17.7067C34.7564 17.7067 34.7682 17.7067 34.7741 17.7123Z" fill="#00B3AA"/>
<path d="M27.583 19.3891L37.8921 22.8371C38.069 22.8981 38.1574 23.081 38.0984 23.2418C38.0395 23.4025 37.8568 23.4857 37.6858 23.4414L27.1939 20.5089C26.8639 20.4146 26.6694 20.0876 26.7696 19.7716C26.8698 19.4612 27.2175 19.2782 27.5535 19.3725C27.5653 19.3725 27.5771 19.378 27.583 19.3836" fill="#00B3AA"/>
<path d="M28.6558 26.118L37.1731 28.9673C37.3204 29.0172 37.397 29.1669 37.344 29.3055C37.2968 29.4385 37.1436 29.505 37.0021 29.4662L28.3375 27.0438C28.0604 26.9661 27.9072 26.6945 27.9897 26.434C28.0722 26.1734 28.3611 26.0293 28.6381 26.1069C28.644 26.1069 28.6558 26.1069 28.6617 26.1125" fill="#00B3AA"/>
<path d="M26.2686 23.1782L36.5777 26.6262C36.7546 26.6872 36.8489 26.8701 36.784 27.0308C36.7251 27.1916 36.5424 27.2748 36.3714 27.2304L25.8796 24.2979C25.5495 24.2037 25.355 23.8766 25.4552 23.5607C25.5554 23.2502 25.9031 23.0673 26.2391 23.1615C26.2509 23.1615 26.2627 23.1671 26.2686 23.1726" fill="#00B3AA"/>
<path d="M25.7263 21.0226L34.2435 23.8719C34.3909 23.9218 34.4616 24.0715 34.4145 24.2101C34.3673 24.3431 34.2141 24.4152 34.0726 24.3708L25.408 21.9484C25.1309 21.8708 24.9777 21.5991 25.0602 21.3441C25.1427 21.0836 25.4315 20.9395 25.7086 21.0171C25.7145 21.0171 25.7263 21.0171 25.7322 21.0226" fill="#00B3AA"/>
<path d="M22.3017 9.4733L27.6714 2.63272C27.7657 2.5163 27.9367 2.49413 28.0604 2.57728C28.1783 2.66043 28.2078 2.81565 28.1253 2.93206L23.1505 10.0332C22.9913 10.2605 22.6671 10.3214 22.4314 10.1718C22.1897 10.0221 22.1249 9.71721 22.284 9.49547C22.284 9.48993 22.2958 9.47884 22.3017 9.4733Z" fill="#00B3AA"/>
<path d="M35.9352 12.4263L36.949 11.0349C36.949 11.0349 36.9608 10.9794 36.9313 10.9628C36.9077 10.9462 36.8724 10.9517 36.8547 10.9739L35.7642 12.3154C35.7289 12.3597 35.7406 12.4207 35.7819 12.454C35.8291 12.4872 35.8939 12.4761 35.9293 12.4373" fill="#00B3AA"/>
<path d="M33.3004 13.2629L36.3655 9.04989C36.4185 8.97783 36.4009 8.87804 36.3242 8.8337C36.2476 8.78381 36.1533 8.80044 36.0943 8.86696L32.7935 12.9192C32.6874 13.0467 32.7169 13.2296 32.8525 13.3294C32.988 13.4292 33.1826 13.4015 33.2887 13.274C33.2887 13.274 33.2887 13.2629 33.2946 13.2629" fill="#00B3AA"/>
<path d="M22.5434 3.27033L23.6397 1.93437C23.6397 1.93437 23.6928 1.90665 23.7164 1.92328C23.7399 1.93991 23.7458 1.97317 23.7281 1.99535L22.7084 3.38675C22.6731 3.43109 22.6141 3.44218 22.567 3.40892C22.5198 3.3812 22.508 3.32023 22.5434 3.27588" fill="#00B3AA"/>
<path d="M22.5139 5.88904L25.8206 1.84234C25.8795 1.77582 25.9797 1.75919 26.0563 1.81462C26.1271 1.86451 26.1448 1.95875 26.0917 2.02527L23.0149 6.23273C22.9147 6.36577 22.7202 6.39903 22.5787 6.31034C22.4372 6.2161 22.4019 6.03871 22.4962 5.90012C22.4962 5.90012 22.5021 5.89458 22.508 5.88904" fill="#00B3AA"/>
<path d="M21.9834 12.8379L28.6558 4.68356C28.7678 4.54497 28.98 4.51725 29.1332 4.62258C29.2747 4.7279 29.3042 4.91638 29.204 5.05497L22.9973 13.5309C22.8028 13.7969 22.4078 13.869 22.119 13.6805C21.8361 13.4976 21.7595 13.1262 21.9599 12.8601C21.9599 12.8546 21.9717 12.8435 21.9776 12.8324" fill="#00B3AA"/>
<path d="M29.1215 13.9528L34.6386 7.2175C34.7329 7.10109 34.9097 7.07892 35.0335 7.16761C35.1514 7.25076 35.1749 7.41152 35.0924 7.52239L29.9644 14.5237C29.7993 14.7455 29.481 14.8009 29.2394 14.6512C29.0036 14.496 28.9447 14.1967 29.1038 13.9694C29.1038 13.9638 29.1156 13.9528 29.1215 13.9472" fill="#00B3AA"/>
<path d="M25.408 15.1845L32.0803 7.0301C32.1923 6.89151 32.4104 6.86379 32.5578 6.97466C32.6992 7.07999 32.7287 7.26846 32.6285 7.40705L26.4218 15.8829C26.2273 16.149 25.8324 16.2211 25.5494 16.0326C25.2665 15.8497 25.1899 15.4783 25.3903 15.2122C25.3903 15.2066 25.4021 15.1956 25.408 15.1845Z" fill="#00B3AA"/>
<path d="M23.0621 15.008L28.5792 8.26719C28.6735 8.15078 28.8503 8.1286 28.9741 8.22284C29.092 8.30599 29.1156 8.46675 29.0331 8.57762L23.905 15.579C23.74 15.8007 23.4217 15.8561 23.1859 15.7065C22.9501 15.5512 22.8912 15.2519 23.0503 15.0246C23.0503 15.0191 23.0621 15.008 23.068 15.0024" fill="#00B3AA"/>
<path d="M17.7101 9.51236L12.3462 2.67178C12.2519 2.55537 12.081 2.53319 11.9572 2.61634C11.8393 2.6995 11.8099 2.85471 11.8924 2.97112L16.8672 10.0722C17.0263 10.2995 17.3505 10.3605 17.5863 10.2108C17.828 10.0612 17.8928 9.75627 17.7336 9.53454C17.7336 9.52899 17.7219 9.51791 17.716 9.51236" fill="#00B3AA"/>
<path d="M4.08237 12.4653L3.06855 11.0739C3.06855 11.0739 3.05676 11.0185 3.08623 11.0019C3.10981 10.9852 3.14518 10.9908 3.16286 11.0129L4.25331 12.3545C4.28867 12.3988 4.27689 12.4598 4.23563 12.493C4.18847 12.5263 4.12363 12.5152 4.08827 12.4764" fill="#00B3AA"/>
<path d="M6.71712 13.298L3.65207 9.08505C3.59903 9.01298 3.61671 8.9132 3.69334 8.86885C3.76996 8.81896 3.86427 8.83559 3.92321 8.90211L7.22403 12.9544C7.33013 13.0819 7.30065 13.2648 7.16509 13.3646C7.02952 13.4643 6.835 13.4366 6.72891 13.3091C6.72891 13.3091 6.72891 13.298 6.72301 13.298" fill="#00B3AA"/>
<path d="M17.4743 3.3133L16.3779 1.97734C16.3779 1.97734 16.3249 1.94962 16.3013 1.96625C16.2777 1.98288 16.2718 2.01614 16.2895 2.03832L17.3092 3.42971C17.3446 3.47406 17.4035 3.48515 17.4507 3.45189C17.4979 3.42417 17.5096 3.36319 17.4743 3.31885" fill="#00B3AA"/>
<path d="M17.5037 5.93201L14.1911 1.88531C14.1322 1.81879 14.032 1.80215 13.9554 1.85759C13.8846 1.90748 13.867 2.00172 13.92 2.06824L16.9968 6.2757C17.097 6.40874 17.2916 6.442 17.433 6.35331C17.5745 6.25907 17.6098 6.08168 17.5155 5.94309C17.5155 5.94309 17.5096 5.93755 17.5037 5.93201Z" fill="#00B3AA"/>
<path d="M18.0342 12.8809L11.3619 4.72653C11.2499 4.58794 11.0377 4.56022 10.8844 4.66555C10.743 4.77087 10.7135 4.95935 10.8137 5.09793L17.0204 13.5738C17.2149 13.8399 17.6099 13.912 17.8987 13.7235C18.1816 13.5406 18.2582 13.1692 18.0578 12.9031C18.0578 12.8975 18.046 12.8864 18.0401 12.8754" fill="#00B3AA"/>
<path d="M10.8962 13.9957L5.37912 7.26047C5.28481 7.14406 5.10798 7.12189 4.9842 7.21058C4.86631 7.29373 4.84274 7.45449 4.92526 7.56536L10.0533 14.5667C10.2183 14.7884 10.5366 14.8439 10.7783 14.6942C11.0141 14.539 11.073 14.2396 10.9139 14.0124C10.9139 14.0068 10.9021 13.9957 10.8962 13.9902" fill="#00B3AA"/>
<path d="M14.6037 15.2274L7.93134 7.07306C7.81935 6.93448 7.60126 6.90676 7.4539 7.01763C7.31244 7.12295 7.28297 7.31143 7.38317 7.45002L13.5899 15.9259C13.7844 16.192 14.1793 16.2641 14.4622 16.0756C14.7452 15.8927 14.8218 15.5212 14.6214 15.2552C14.6214 15.2496 14.6096 15.2385 14.6037 15.2274Z" fill="#00B3AA"/>
<path d="M16.9555 15.0471L11.4384 8.30625C11.3441 8.18984 11.1673 8.16767 11.0435 8.2619C10.9256 8.34506 10.9021 8.50581 10.9846 8.61668L16.1126 15.618C16.2777 15.8398 16.596 15.8952 16.8317 15.7455C17.0675 15.5903 17.1265 15.291 16.9673 15.0637C16.9673 15.0581 16.9555 15.0471 16.9496 15.0415" fill="#00B3AA"/>
<path d="M8.90986 18.633L0.333638 21.316C0.18628 21.3604 0.109654 21.51 0.156808 21.6486C0.203963 21.7817 0.35132 21.8537 0.492784 21.8205L9.21047 19.5643C9.48751 19.4922 9.64665 19.2206 9.57592 18.9656C9.4993 18.7051 9.21047 18.5554 8.93934 18.6274C8.92755 18.6274 8.92165 18.6274 8.90986 18.633Z" fill="#00B3AA"/>
<path d="M7.68379 31.7447L5.96265 32.2215C5.96265 32.2215 5.9037 32.2159 5.89192 32.1882C5.88602 32.1605 5.89781 32.1328 5.92728 32.1272L7.61895 31.5673C7.672 31.5507 7.73094 31.5784 7.74862 31.6283C7.76631 31.6782 7.73684 31.7336 7.68379 31.7503" fill="#00B3AA"/>
<path d="M9.34598 29.6435L4.1354 31.0848C4.04699 31.107 3.95268 31.0627 3.9291 30.9795C3.90553 30.8964 3.95268 30.8132 4.0352 30.7855L9.15736 29.0837C9.3224 29.0282 9.49923 29.1114 9.55817 29.2611C9.61712 29.4163 9.5287 29.5826 9.36956 29.638C9.36956 29.638 9.35777 29.638 9.35187 29.638" fill="#00B3AA"/>
<path d="M2.56758 16.9298L0.875908 17.4953C0.875908 17.4953 0.834648 17.5341 0.840542 17.5618C0.852331 17.5895 0.881802 17.6006 0.90538 17.5951L2.62652 17.1128C2.67957 17.0961 2.70904 17.0463 2.69725 16.9908C2.67957 16.9409 2.62063 16.9132 2.56758 16.9243" fill="#00B3AA"/>
<path d="M5.2259 17.7123L0.109638 19.4252C0.0212236 19.4529 -0.0200366 19.5416 0.009435 19.6248C0.0389066 19.7024 0.127321 19.7467 0.215736 19.7245L5.42042 18.2722C5.58546 18.2278 5.67977 18.0615 5.63261 17.9063C5.58546 17.7511 5.40863 17.6624 5.24359 17.7067C5.24359 17.7067 5.2318 17.7067 5.2259 17.7123Z" fill="#00B3AA"/>
<path d="M12.4111 19.3891L2.10193 22.8371C1.9251 22.8981 1.83668 23.081 1.89563 23.2418C1.95457 23.4025 2.13729 23.4857 2.30823 23.4414L12.8001 20.5089C13.1302 20.4146 13.3247 20.0876 13.2245 19.7716C13.1243 19.4612 12.7765 19.2782 12.4406 19.3725C12.4288 19.3725 12.417 19.378 12.4111 19.3836" fill="#00B3AA"/>
<path d="M11.3442 26.118L2.82691 28.9673C2.67956 29.0172 2.60293 29.1669 2.65598 29.3055C2.70313 29.4385 2.85639 29.505 2.99785 29.4662L11.6625 27.0438C11.9395 26.9661 12.0928 26.6945 12.0103 26.434C11.9277 26.1734 11.6389 26.0293 11.3619 26.1069C11.356 26.1069 11.3442 26.1069 11.3383 26.1125" fill="#00B3AA"/>
<path d="M13.7313 23.1782L3.42219 26.6262C3.24536 26.6872 3.15105 26.8701 3.21589 27.0308C3.27483 27.1916 3.45755 27.2748 3.62849 27.2304L14.1204 24.2979C14.4505 24.2037 14.645 23.8766 14.5448 23.5607C14.4446 23.2502 14.0968 23.0673 13.7608 23.1615C13.749 23.1615 13.7372 23.1671 13.7313 23.1726" fill="#00B3AA"/>
<path d="M14.2736 21.0226L5.75635 23.8719C5.609 23.9218 5.53826 24.0715 5.58542 24.2101C5.63257 24.3431 5.78583 24.4152 5.92729 24.3708L14.5919 21.9484C14.869 21.8708 15.0222 21.5991 14.9397 21.3441C14.8572 21.0836 14.5684 20.9395 14.2913 21.0171C14.2854 21.0171 14.2736 21.0171 14.2677 21.0226" fill="#00B3AA"/>
<path d="M239.536 14.4395L235.484 26.5H232.642L237.954 12.2812H239.771L239.536 14.4395ZM242.925 26.5L238.853 14.4395L238.609 12.2812H240.435L245.776 26.5H242.925ZM242.739 21.2168V23.3359H235.112V21.2168H242.739ZM251.382 24.6641C251.747 24.6641 252.072 24.5924 252.359 24.4492C252.645 24.306 252.873 24.1042 253.042 23.8438C253.218 23.5833 253.312 23.2806 253.325 22.9355H255.757C255.744 23.6517 255.542 24.293 255.151 24.8594C254.761 25.4258 254.24 25.875 253.589 26.207C252.944 26.5326 252.222 26.6953 251.421 26.6953C250.607 26.6953 249.898 26.5586 249.292 26.2852C248.687 26.0117 248.182 25.6309 247.778 25.1426C247.381 24.6543 247.082 24.0879 246.88 23.4434C246.685 22.7988 246.587 22.1087 246.587 21.373V21.0605C246.587 20.3249 246.685 19.6348 246.88 18.9902C247.082 18.3457 247.381 17.7793 247.778 17.291C248.182 16.8027 248.687 16.4219 249.292 16.1484C249.898 15.875 250.604 15.7383 251.411 15.7383C252.264 15.7383 253.013 15.9043 253.657 16.2363C254.308 16.5684 254.816 17.0371 255.181 17.6426C255.552 18.248 255.744 18.9609 255.757 19.7812H253.325C253.312 19.4036 253.228 19.0651 253.071 18.7656C252.915 18.4661 252.694 18.2253 252.407 18.043C252.121 17.8607 251.773 17.7695 251.362 17.7695C250.926 17.7695 250.562 17.8607 250.269 18.043C249.982 18.2253 249.758 18.4759 249.595 18.7949C249.439 19.1074 249.328 19.459 249.263 19.8496C249.204 20.2337 249.175 20.6374 249.175 21.0605V21.373C249.175 21.8027 249.204 22.2129 249.263 22.6035C249.328 22.9941 249.439 23.3457 249.595 23.6582C249.758 23.9642 249.982 24.2083 250.269 24.3906C250.562 24.5729 250.933 24.6641 251.382 24.6641ZM261.812 24.6641C262.176 24.6641 262.502 24.5924 262.788 24.4492C263.075 24.306 263.303 24.1042 263.472 23.8438C263.648 23.5833 263.742 23.2806 263.755 22.9355H266.187C266.174 23.6517 265.972 24.293 265.581 24.8594C265.191 25.4258 264.67 25.875 264.019 26.207C263.374 26.5326 262.651 26.6953 261.851 26.6953C261.037 26.6953 260.327 26.5586 259.722 26.2852C259.116 26.0117 258.612 25.6309 258.208 25.1426C257.811 24.6543 257.512 24.0879 257.31 23.4434C257.114 22.7988 257.017 22.1087 257.017 21.373V21.0605C257.017 20.3249 257.114 19.6348 257.31 18.9902C257.512 18.3457 257.811 17.7793 258.208 17.291C258.612 16.8027 259.116 16.4219 259.722 16.1484C260.327 15.875 261.034 15.7383 261.841 15.7383C262.694 15.7383 263.443 15.9043 264.087 16.2363C264.738 16.5684 265.246 17.0371 265.61 17.6426C265.982 18.248 266.174 18.9609 266.187 19.7812H263.755C263.742 19.4036 263.657 19.0651 263.501 18.7656C263.345 18.4661 263.123 18.2253 262.837 18.043C262.551 17.8607 262.202 17.7695 261.792 17.7695C261.356 17.7695 260.991 17.8607 260.698 18.043C260.412 18.2253 260.187 18.4759 260.025 18.7949C259.868 19.1074 259.758 19.459 259.693 19.8496C259.634 20.2337 259.605 20.6374 259.605 21.0605V21.373C259.605 21.8027 259.634 22.2129 259.693 22.6035C259.758 22.9941 259.868 23.3457 260.025 23.6582C260.187 23.9642 260.412 24.2083 260.698 24.3906C260.991 24.5729 261.362 24.6641 261.812 24.6641ZM267.446 21.3242V21.1191C267.446 20.3444 267.557 19.6315 267.778 18.9805C268 18.3229 268.322 17.7533 268.745 17.2715C269.168 16.7897 269.686 16.4154 270.298 16.1484C270.91 15.875 271.607 15.7383 272.388 15.7383C273.182 15.7383 273.885 15.875 274.497 16.1484C275.116 16.4154 275.637 16.7897 276.06 17.2715C276.483 17.7533 276.805 18.3229 277.026 18.9805C277.248 19.6315 277.359 20.3444 277.359 21.1191V21.3242C277.359 22.0924 277.248 22.8053 277.026 23.4629C276.805 24.1139 276.483 24.6836 276.06 25.1719C275.637 25.6536 275.119 26.028 274.507 26.2949C273.895 26.5618 273.195 26.6953 272.407 26.6953C271.626 26.6953 270.926 26.5618 270.308 26.2949C269.689 26.028 269.168 25.6536 268.745 25.1719C268.322 24.6836 268 24.1139 267.778 23.4629C267.557 22.8053 267.446 22.0924 267.446 21.3242ZM270.025 21.1191V21.3242C270.025 21.7865 270.07 22.2194 270.161 22.623C270.252 23.0267 270.392 23.3815 270.581 23.6875C270.77 23.9935 271.014 24.2344 271.314 24.4102C271.62 24.5794 271.984 24.6641 272.407 24.6641C272.824 24.6641 273.182 24.5794 273.482 24.4102C273.781 24.2344 274.025 23.9935 274.214 23.6875C274.409 23.3815 274.553 23.0267 274.644 22.623C274.735 22.2194 274.78 21.7865 274.78 21.3242V21.1191C274.78 20.6634 274.735 20.237 274.644 19.8398C274.553 19.4362 274.409 19.0814 274.214 18.7754C274.025 18.4629 273.778 18.2188 273.472 18.043C273.172 17.8607 272.811 17.7695 272.388 17.7695C271.971 17.7695 271.613 17.8607 271.314 18.043C271.014 18.2188 270.77 18.4629 270.581 18.7754C270.392 19.0814 270.252 19.4362 270.161 19.8398C270.07 20.237 270.025 20.6634 270.025 21.1191ZM285.523 23.9902V15.9336H288.12V26.5H285.679L285.523 23.9902ZM285.855 21.8027L286.655 21.7832C286.655 22.4928 286.577 23.1471 286.421 23.7461C286.265 24.3451 286.021 24.8659 285.689 25.3086C285.363 25.7448 284.95 26.0866 284.448 26.334C283.947 26.5749 283.355 26.6953 282.671 26.6953C282.15 26.6953 281.675 26.6237 281.245 26.4805C280.816 26.3307 280.444 26.0996 280.132 25.7871C279.826 25.4681 279.588 25.0612 279.419 24.5664C279.25 24.0651 279.165 23.4629 279.165 22.7598V15.9336H281.743V22.7793C281.743 23.1309 281.782 23.4238 281.86 23.6582C281.945 23.8926 282.059 24.0846 282.202 24.2344C282.352 24.3776 282.525 24.4818 282.72 24.5469C282.922 24.6055 283.137 24.6348 283.364 24.6348C283.989 24.6348 284.481 24.5111 284.839 24.2637C285.204 24.0098 285.464 23.6712 285.62 23.248C285.776 22.8184 285.855 22.3366 285.855 21.8027ZM292.935 18.1895V26.5H290.357V15.9336H292.778L292.935 18.1895ZM292.525 20.8359H291.763C291.769 20.0677 291.873 19.3711 292.075 18.7461C292.277 18.1211 292.56 17.584 292.925 17.1348C293.296 16.6855 293.735 16.3405 294.243 16.0996C294.751 15.8587 295.318 15.7383 295.943 15.7383C296.45 15.7383 296.909 15.8099 297.319 15.9531C297.73 16.0964 298.081 16.3242 298.374 16.6367C298.674 16.9492 298.901 17.3594 299.058 17.8672C299.22 18.3685 299.302 18.987 299.302 19.7227V26.5H296.704V19.7031C296.704 19.2214 296.633 18.8405 296.489 18.5605C296.353 18.2806 296.151 18.082 295.884 17.9648C295.623 17.8477 295.301 17.7891 294.917 17.7891C294.52 17.7891 294.172 17.8704 293.872 18.0332C293.579 18.1895 293.332 18.4076 293.13 18.6875C292.935 18.9674 292.785 19.2897 292.681 19.6543C292.577 20.0189 292.525 20.4128 292.525 20.8359ZM306.577 15.9336V17.7891H300.523V15.9336H306.577ZM302.144 13.3359H304.732V23.4531C304.732 23.7656 304.774 24.0065 304.859 24.1758C304.943 24.3451 305.07 24.459 305.239 24.5176C305.409 24.5762 305.61 24.6055 305.845 24.6055C306.014 24.6055 306.17 24.5957 306.314 24.5762C306.457 24.5566 306.577 24.5371 306.675 24.5176L306.685 26.4512C306.47 26.5228 306.226 26.5814 305.952 26.627C305.685 26.6725 305.383 26.6953 305.044 26.6953C304.465 26.6953 303.957 26.5977 303.521 26.4023C303.084 26.2005 302.746 25.8783 302.505 25.4355C302.264 24.9863 302.144 24.3939 302.144 23.6582V13.3359Z" fill="#32383E"/>
</svg>
