<svg width="32" height="32" viewBox="0 0 32 32" fill="none" xmlns="http://www.w3.org/2000/svg">
<path d="M19.6521 24.1905L19.6003 31.6586C19.6003 31.7852 19.4965 31.8874 19.3739 31.8874C19.256 31.8874 19.157 31.79 19.1523 31.6683L18.8222 24.21C18.8128 23.9714 18.9872 23.7718 19.2183 23.7621C19.4494 23.7524 19.6427 23.9325 19.6521 24.171C19.6521 24.1808 19.6521 24.1856 19.6521 24.1954" fill="#00B3AA"/>
<path d="M9.35358 28.7048L9.3913 30.1848C9.3913 30.2091 9.41016 30.2286 9.43846 30.2286C9.46203 30.2286 9.48089 30.2091 9.48089 30.1848L9.51862 28.7048C9.51862 28.6561 9.48561 28.6172 9.43846 28.6172C9.3913 28.6172 9.35358 28.6513 9.35358 28.6999" fill="#00B3AA"/>
<path d="M10.6409 26.8361L10.7635 31.3199C10.7635 31.3978 10.8248 31.4562 10.9002 31.4562C10.971 31.4562 11.0275 31.3929 11.0323 31.3248L11.1407 26.841C11.1407 26.6998 11.037 26.5781 10.8955 26.5781C10.7588 26.5781 10.6456 26.6852 10.6409 26.8313C10.6409 26.8313 10.6409 26.841 10.6409 26.8459" fill="#00B3AA"/>
<path d="M22.5992 28.7087L22.5615 30.1887C22.5615 30.213 22.5427 30.2325 22.5144 30.2325C22.4908 30.2325 22.4719 30.213 22.4719 30.1887L22.4342 28.7087C22.4342 28.66 22.4672 28.6211 22.5144 28.6211C22.5615 28.6211 22.5992 28.6552 22.5992 28.7039" fill="#00B3AA"/>
<path d="M21.3072 26.8361L21.1846 31.3199C21.1846 31.3978 21.1233 31.4562 21.0479 31.4562C20.9771 31.4562 20.9205 31.3929 20.9158 31.3248L20.8074 26.841C20.8074 26.6998 20.9111 26.5781 21.0526 26.5781C21.1893 26.5781 21.3025 26.6852 21.3072 26.8313C21.3072 26.8313 21.3072 26.841 21.3072 26.8459" fill="#00B3AA"/>
<path d="M18.1762 21.644L17.9357 30.6797C17.9357 30.8355 17.8084 30.9572 17.6575 30.9523C17.5113 30.9523 17.3981 30.8257 17.3934 30.6797L17.1718 21.644C17.1671 21.3568 17.384 21.1182 17.6622 21.1134C17.9404 21.1085 18.1714 21.3324 18.1762 21.6197C18.1762 21.6294 18.1762 21.6391 18.1762 21.6489" fill="#00B3AA"/>
<path d="M12.9986 24.3093L12.7958 31.7725C12.7958 31.8991 12.6874 32.0014 12.5648 31.9965C12.4469 31.9965 12.3526 31.8942 12.3479 31.7725L12.164 24.3093C12.1593 24.0708 12.3384 23.8761 12.5695 23.8712C12.8006 23.8663 12.9892 24.0513 12.9939 24.2899C12.9939 24.2947 12.9939 24.3045 12.9939 24.3142" fill="#00B3AA"/>
<path d="M14.7858 21.6403L14.5453 30.676C14.5453 30.8318 14.418 30.9535 14.2671 30.9486C14.1209 30.9486 14.0077 30.8221 14.003 30.676L13.7814 21.6403C13.7767 21.3531 13.9936 21.1145 14.2718 21.1097C14.55 21.0999 14.7811 21.3288 14.7858 21.616C14.7858 21.6257 14.7858 21.6355 14.7858 21.6452" fill="#00B3AA"/>
<path d="M16.3937 20.6257L16.1909 28.0889C16.1909 28.2155 16.0825 28.3178 15.9599 28.3129C15.842 28.3129 15.7477 28.2107 15.743 28.0889L15.5591 20.6257C15.5543 20.3872 15.7335 20.1925 15.9646 20.1876C16.1956 20.1827 16.3843 20.3677 16.389 20.6063C16.389 20.6111 16.389 20.6209 16.389 20.6306" fill="#00B3AA"/>
<path d="M24.8674 14.801L31.7283 17.1622C31.8462 17.2011 31.9075 17.3326 31.8698 17.4543C31.8321 17.5711 31.7142 17.6344 31.601 17.6052L24.6269 15.6238C24.4052 15.5605 24.2779 15.3219 24.3345 15.098C24.3958 14.8692 24.6269 14.7377 24.8438 14.801C24.8532 14.801 24.8579 14.801 24.8674 14.8059" fill="#00B3AA"/>
<path d="M25.8529 26.3085L27.2298 26.7271C27.2298 26.7271 27.277 26.7223 27.2864 26.6979C27.2911 26.6736 27.2817 26.6493 27.2581 26.6444L25.9048 26.1527C25.8623 26.1381 25.8152 26.1624 25.801 26.2062C25.7869 26.2501 25.8105 26.2987 25.8529 26.3133" fill="#00B3AA"/>
<path d="M24.5232 24.4639L28.6916 25.7297C28.7624 25.7491 28.8378 25.7102 28.8567 25.6372C28.8755 25.5641 28.8378 25.4911 28.7718 25.4668L24.6741 23.9722C24.542 23.9235 24.4006 23.9965 24.3534 24.128C24.3063 24.2643 24.377 24.4103 24.5043 24.459C24.5043 24.459 24.5137 24.459 24.5185 24.459" fill="#00B3AA"/>
<path d="M29.946 13.3L31.2993 13.7965C31.2993 13.7965 31.3323 13.8306 31.3276 13.855C31.3182 13.8793 31.2946 13.889 31.2757 13.8842L29.8988 13.4606C29.8564 13.446 29.8328 13.4022 29.8422 13.3535C29.8564 13.3097 29.9035 13.2854 29.946 13.2951" fill="#00B3AA"/>
<path d="M27.8193 13.9876L31.9123 15.4919C31.983 15.5162 32.016 15.5941 31.9924 15.6671C31.9689 15.7353 31.8981 15.7742 31.8274 15.7548L27.6637 14.4793C27.5316 14.4403 27.4562 14.2943 27.4939 14.1579C27.5316 14.0216 27.6731 13.9437 27.8051 13.9827C27.8051 13.9827 27.8146 13.9827 27.8193 13.9876Z" fill="#00B3AA"/>
<path d="M22.0664 15.4583L30.3137 18.4864C30.4552 18.54 30.5259 18.7006 30.4787 18.8418C30.4316 18.983 30.2854 19.056 30.1487 19.0171L21.7552 16.4417C21.4911 16.3589 21.3355 16.0717 21.4156 15.7942C21.4958 15.5216 21.774 15.3609 22.0428 15.4437C22.0522 15.4437 22.0617 15.4485 22.0664 15.4534" fill="#00B3AA"/>
<path d="M22.9246 21.368L29.7385 23.8703C29.8564 23.9142 29.9177 24.0456 29.8752 24.1673C29.8375 24.2841 29.7149 24.3426 29.6017 24.3085L22.67 22.181C22.4484 22.1129 22.3258 21.8743 22.3918 21.6455C22.4578 21.4167 22.6889 21.2901 22.9105 21.3583C22.9152 21.3583 22.9247 21.3583 22.9294 21.3631" fill="#00B3AA"/>
<path d="M21.0149 18.7864L29.2622 21.8145C29.4037 21.8681 29.4791 22.0287 29.4272 22.1699C29.3801 22.3111 29.2339 22.3841 29.0971 22.3452L20.7036 19.7698C20.4396 19.6871 20.284 19.3998 20.3641 19.1223C20.4443 18.8497 20.7225 18.689 20.9913 18.7718C21.0007 18.7718 21.0101 18.7767 21.0149 18.7815" fill="#00B3AA"/>
<path d="M20.581 16.8944L27.3948 19.3967C27.5127 19.4405 27.5693 19.572 27.5316 19.6937C27.4939 19.8105 27.3713 19.8738 27.2581 19.8349L20.3264 17.7074C20.1048 17.6392 19.9822 17.4007 20.0482 17.1767C20.1142 16.9479 20.3452 16.8214 20.5669 16.8895C20.5716 16.8895 20.581 16.8895 20.5857 16.8944" fill="#00B3AA"/>
<path d="M17.8414 6.75244L22.1371 0.744884C22.2126 0.642649 22.3493 0.623175 22.4484 0.696201C22.5427 0.769226 22.5662 0.90554 22.5002 1.00778L18.5204 7.24415C18.3931 7.44375 18.1337 7.4973 17.9451 7.36586C17.7518 7.23441 17.6999 6.96665 17.8272 6.77192C17.8272 6.76705 17.8366 6.75731 17.8414 6.75244Z" fill="#00B3AA"/>
<path d="M28.7482 9.34843L29.5593 8.12647C29.5593 8.12647 29.5687 8.07778 29.5451 8.06318C29.5263 8.04857 29.498 8.05344 29.4838 8.07292L28.6115 9.25106C28.5832 9.29001 28.5926 9.34356 28.6256 9.37277C28.6633 9.40198 28.7152 9.39224 28.7435 9.35816" fill="#00B3AA"/>
<path d="M26.6404 10.0833L29.0924 6.38331C29.1349 6.32002 29.1207 6.23239 29.0594 6.19344C28.9981 6.14963 28.9227 6.16423 28.8755 6.22265L26.2349 9.78143C26.15 9.8934 26.1736 10.0541 26.282 10.1417C26.3905 10.2293 26.5461 10.205 26.631 10.093C26.631 10.093 26.631 10.0833 26.6357 10.0833" fill="#00B3AA"/>
<path d="M18.0347 1.30877L18.9118 0.135497C18.9118 0.135497 18.9542 0.111155 18.9731 0.12576C18.9919 0.140366 18.9967 0.169576 18.9825 0.189049L18.1667 1.41101C18.1384 1.44995 18.0913 1.45969 18.0536 1.43048C18.0158 1.40614 18.0064 1.35259 18.0347 1.31364" fill="#00B3AA"/>
<path d="M18.0111 3.60755L20.6565 0.0536483C20.7036 -0.004772 20.7838 -0.0193771 20.8451 0.0293065C20.9017 0.0731218 20.9158 0.155884 20.8734 0.214304L18.4119 3.90939C18.3317 4.02623 18.1761 4.05544 18.063 3.97755C17.9498 3.89479 17.9215 3.739 17.9969 3.61729C17.9969 3.61729 18.0017 3.61242 18.0064 3.60755" fill="#00B3AA"/>
<path d="M17.5867 9.7086L22.9246 2.54724C23.0142 2.42554 23.1839 2.40119 23.3065 2.49369C23.4197 2.58619 23.4433 2.75172 23.3631 2.87343L18.3978 10.3171C18.2421 10.5508 17.9262 10.6141 17.6952 10.4486C17.4688 10.2879 17.4075 9.96176 17.5678 9.72808C17.5678 9.72321 17.5773 9.71347 17.582 9.70374" fill="#00B3AA"/>
<path d="M23.2971 10.6902L27.7108 4.77512C27.7862 4.67289 27.9277 4.65342 28.0267 4.73131C28.121 4.80433 28.1399 4.94552 28.0739 5.04288L23.9714 11.1916C23.8394 11.3864 23.5848 11.435 23.3914 11.3036C23.2028 11.1673 23.1557 10.9044 23.283 10.7048C23.283 10.6999 23.2924 10.6902 23.2971 10.6853" fill="#00B3AA"/>
<path d="M20.3264 11.7701L25.6643 4.60876C25.7538 4.48705 25.9283 4.46271 26.0462 4.56008C26.1594 4.65258 26.183 4.8181 26.1028 4.93981L21.1374 12.3835C20.9818 12.6172 20.6659 12.6805 20.4395 12.515C20.2132 12.3543 20.1519 12.0281 20.3122 11.7945C20.3122 11.7896 20.3216 11.7799 20.3264 11.7701Z" fill="#00B3AA"/>
<path d="M18.4496 11.616L22.8633 5.69604C22.9387 5.5938 23.0802 5.57433 23.1792 5.65709C23.2735 5.73011 23.2924 5.8713 23.2264 5.96866L19.1239 12.1174C18.9919 12.3121 18.7373 12.3608 18.5487 12.2294C18.36 12.0931 18.3129 11.8302 18.4402 11.6306C18.4402 11.6257 18.4496 11.616 18.4544 11.6111" fill="#00B3AA"/>
<path d="M14.1681 6.7876L9.87702 0.780041C9.80157 0.677805 9.66482 0.658332 9.5658 0.731357C9.47149 0.804382 9.44791 0.940697 9.51393 1.04293L13.4938 7.2793C13.6211 7.47891 13.8804 7.53246 14.0691 7.40101C14.2624 7.26957 14.3143 7.00181 14.1869 6.80707C14.1869 6.8022 14.1775 6.79247 14.1728 6.7876" fill="#00B3AA"/>
<path d="M3.26592 9.38358L2.45487 8.16162C2.45487 8.16162 2.44543 8.11294 2.46901 8.09834C2.48787 8.08373 2.51617 8.0886 2.53031 8.10807L3.40267 9.28622C3.43096 9.32516 3.42153 9.37872 3.38853 9.40793C3.3508 9.43714 3.29893 9.4274 3.27064 9.39332" fill="#00B3AA"/>
<path d="M5.37365 10.1145L2.92161 6.41456C2.87917 6.35127 2.89332 6.26364 2.95462 6.22469C3.01592 6.18088 3.09137 6.19548 3.13852 6.25391L5.77917 9.81268C5.86405 9.92465 5.84048 10.0853 5.73202 10.1729C5.62356 10.2606 5.46795 10.2362 5.38308 10.1243C5.38308 10.1243 5.38308 10.1145 5.37836 10.1145" fill="#00B3AA"/>
<path d="M13.9794 1.34393L13.1023 0.170653C13.1023 0.170653 13.0599 0.146312 13.041 0.160917C13.0222 0.175522 13.0175 0.204732 13.0316 0.224205L13.8474 1.44616C13.8757 1.48511 13.9228 1.49485 13.9605 1.46564C13.9983 1.4413 14.0077 1.38774 13.9794 1.3488" fill="#00B3AA"/>
<path d="M14.003 3.64271L11.3529 0.0888046C11.3058 0.0303843 11.2256 0.0157792 11.1643 0.0644628C11.1077 0.108278 11.0936 0.19104 11.136 0.24946L13.5975 3.94455C13.6776 4.06139 13.8332 4.0906 13.9464 4.0127C14.0596 3.92994 14.0879 3.77415 14.0124 3.65244C14.0124 3.65244 14.0077 3.64758 14.003 3.64271Z" fill="#00B3AA"/>
<path d="M14.4274 9.74376L9.08948 2.5824C8.99989 2.46069 8.83013 2.43635 8.70753 2.52885C8.59436 2.62135 8.57078 2.78687 8.65095 2.90858L13.6163 10.3523C13.7719 10.586 14.0879 10.6493 14.3189 10.4838C14.5453 10.3231 14.6066 9.99691 14.4462 9.76323C14.4462 9.75836 14.4368 9.74863 14.4321 9.73889" fill="#00B3AA"/>
<path d="M8.71696 10.7253L4.3033 4.81028C4.22785 4.70805 4.08639 4.68857 3.98736 4.76647C3.89305 4.83949 3.87419 4.98067 3.94021 5.07804L8.04265 11.2268C8.17468 11.4215 8.42932 11.4702 8.62265 11.3388C8.81127 11.2024 8.85842 10.9395 8.73111 10.7399C8.73111 10.7351 8.72167 10.7253 8.71696 10.7205" fill="#00B3AA"/>
<path d="M11.683 11.8053L6.3451 4.64392C6.2555 4.52221 6.08103 4.49787 5.96315 4.59524C5.84998 4.68773 5.8264 4.85326 5.90656 4.97497L10.8719 12.4187C11.0275 12.6524 11.3435 12.7157 11.5698 12.5501C11.7962 12.3895 11.8575 12.0633 11.6971 11.8296C11.6971 11.8248 11.6877 11.815 11.683 11.8053Z" fill="#00B3AA"/>
<path d="M13.5644 11.6472L9.15077 5.72729C9.07532 5.62505 8.93386 5.60558 8.83483 5.68834C8.74052 5.76136 8.72166 5.90255 8.78768 5.99991L12.8901 12.1487C13.0222 12.3434 13.2768 12.3921 13.4654 12.2606C13.654 12.1243 13.7012 11.8614 13.5739 11.6618C13.5739 11.6569 13.5644 11.6472 13.5597 11.6423" fill="#00B3AA"/>
<path d="M7.12792 14.7981L0.266934 17.1544C0.149048 17.1933 0.0877473 17.3248 0.125471 17.4465C0.163195 17.5633 0.281081 17.6266 0.394252 17.5974L7.3684 15.616C7.59003 15.5527 7.71735 15.3141 7.66076 15.0902C7.59946 14.8614 7.3684 14.7299 7.15149 14.7932C7.14206 14.7932 7.13735 14.7932 7.12792 14.7981Z" fill="#00B3AA"/>
<path d="M6.14696 26.3085L4.77004 26.7271C4.77004 26.7271 4.72289 26.7223 4.71346 26.6979C4.70874 26.6736 4.71817 26.6493 4.74175 26.6444L6.09509 26.1527C6.13753 26.1381 6.18468 26.1624 6.19883 26.2062C6.21297 26.2501 6.1894 26.2987 6.14696 26.3133" fill="#00B3AA"/>
<path d="M7.47678 24.4639L3.30832 25.7297C3.23759 25.7491 3.16214 25.7102 3.14328 25.6372C3.12442 25.5641 3.16214 25.4911 3.22816 25.4668L7.32589 23.9722C7.45792 23.9235 7.59939 23.9965 7.64654 24.128C7.69369 24.2643 7.62296 24.4103 7.49565 24.459C7.49565 24.459 7.48621 24.459 7.4815 24.459" fill="#00B3AA"/>
<path d="M2.05409 13.3L0.700751 13.7965C0.700751 13.7965 0.667743 13.8306 0.672458 13.855C0.681889 13.8793 0.705466 13.889 0.724328 13.8842L2.10124 13.4606C2.14368 13.446 2.16726 13.4022 2.15783 13.3535C2.14368 13.3097 2.09652 13.2854 2.05409 13.2951" fill="#00B3AA"/>
<path d="M4.18072 13.9876L0.0877107 15.4919C0.0169789 15.5162 -0.0160293 15.5941 0.007548 15.6671C0.0311253 15.7353 0.101857 15.7742 0.172589 15.7548L4.33633 14.4793C4.46837 14.4403 4.54381 14.2943 4.50609 14.1579C4.46837 14.0216 4.3269 13.9437 4.19487 13.9827C4.19487 13.9827 4.18544 13.9827 4.18072 13.9876Z" fill="#00B3AA"/>
<path d="M9.92887 15.4583L1.68154 18.4864C1.54008 18.54 1.46935 18.7006 1.5165 18.8418C1.56366 18.983 1.70983 19.056 1.84658 19.0171L10.2401 16.4417C10.5042 16.3589 10.6598 16.0717 10.5796 15.7942C10.4994 15.5216 10.2212 15.3609 9.95245 15.4437C9.94301 15.4437 9.93358 15.4485 9.92887 15.4534" fill="#00B3AA"/>
<path d="M9.07536 21.368L2.26153 23.8703C2.14365 23.9142 2.08234 24.0456 2.12478 24.1673C2.16251 24.2841 2.28511 24.3426 2.39828 24.3085L9.32999 22.181C9.55162 22.1129 9.67422 21.8743 9.6082 21.6455C9.54219 21.4167 9.31113 21.2901 9.08951 21.3583C9.08479 21.3583 9.07536 21.3583 9.07064 21.3631" fill="#00B3AA"/>
<path d="M10.9852 18.7864L2.73785 21.8145C2.59638 21.8681 2.52094 22.0287 2.57281 22.1699C2.61996 22.3111 2.76614 22.3841 2.90289 22.3452L11.2964 19.7698C11.5605 19.6871 11.7161 19.3998 11.6359 19.1223C11.5557 18.8497 11.2775 18.689 11.0087 18.7718C10.9993 18.7718 10.9899 18.7767 10.9852 18.7815" fill="#00B3AA"/>
<path d="M11.419 16.8944L4.60513 19.3967C4.48725 19.4405 4.43066 19.572 4.46838 19.6937C4.50611 19.8105 4.62871 19.8738 4.74188 19.8349L11.6736 17.7074C11.8952 17.6392 12.0178 17.4007 11.9518 17.1767C11.8858 16.9479 11.6547 16.8214 11.4331 16.8895C11.4284 16.8895 11.419 16.8895 11.4142 16.8944" fill="#00B3AA"/>
</svg>
