<svg width="167" height="33" viewBox="0 0 167 33" fill="none" xmlns="http://www.w3.org/2000/svg">
<path d="M158.863 13.2512H156.988L154.334 20.0644L151.475 13.2512H149.547L153.379 22.4945L152.946 23.5659C152.6 24.3938 152.225 24.7445 151.373 24.7445C151.076 24.7445 150.784 24.6811 150.491 24.6324V26.2006C150.915 26.2639 151.339 26.298 151.782 26.298C153.72 26.298 154.188 24.8954 154.792 23.3809L154.816 23.3175L158.858 13.261L158.863 13.2512Z" fill="#241F21"/>
<path d="M49.3264 9.87146H47.4855V15.3843H41.1447V9.87146H39.2844V22.5481H41.1447V17.0206H47.4855V22.5481H49.3264V9.87146Z" fill="#241F21"/>
<path d="M59.4853 17.8682C59.4853 15.0436 57.8782 13.1881 55.2777 13.1881C52.4725 13.1881 50.8849 15.2189 50.8849 17.9023C50.8849 20.5857 52.5943 22.6359 55.2777 22.6359C57.8636 22.6506 59.0324 21.0288 59.2516 19.6945H57.664C57.3084 20.6051 56.4124 21.1311 55.263 21.1311C54.0455 21.1165 52.828 20.2009 52.7258 18.4964H59.4513C59.4853 18.2773 59.4853 18.0581 59.4853 17.8731V17.8682ZM57.6786 17.1085H52.7599C52.979 15.6864 53.7923 14.7076 55.263 14.7076C56.7338 14.7076 57.513 15.6523 57.6786 17.1085Z" fill="#241F21"/>
<path d="M69.4104 22.5481V21.0773C68.9867 21.0919 68.6994 20.8046 68.6994 19.8598C68.6994 19.402 68.6848 17.8972 68.6848 16.5628C68.6848 14.3129 67.2628 13.1489 65.0177 13.1489C62.4463 13.1489 61.3506 14.7366 61.2142 16.3924H62.87C62.9869 15.2576 63.8343 14.6684 64.9641 14.6684C66.1621 14.6684 66.9267 15.243 66.9267 16.5287V16.782L64.7985 16.9524C62.3294 17.1375 60.9804 18.2527 60.9804 19.9085C60.9804 21.5643 62.2807 22.6455 64.0583 22.6455C65.3781 22.6455 66.5956 22.0854 67.102 21.3598C67.3748 22.2364 68.0809 22.4409 68.8406 22.5237C69.0452 22.5383 69.2302 22.5383 69.4153 22.5383L69.4104 22.5481ZM66.9267 19.5579C66.6735 20.4199 65.6069 21.165 64.4235 21.165C63.6102 21.165 62.8359 20.6926 62.8359 19.8452C62.8359 19.0514 63.4788 18.4426 65.0859 18.3063L66.9267 18.1358V19.5579Z" fill="#241F21"/>
<path d="M70.9494 22.5481H72.7561V9.87146H70.964L70.9494 22.5481Z" fill="#241F21"/>
<path d="M79.1115 22.5676H80.1926V20.98H79.1115C78.079 20.98 77.7771 20.5222 77.7771 19.6456V14.7415L80.1098 14.7561V13.2172H77.8112V9.87146H75.9849V13.2172H74.4801V14.7366H75.9849L75.9703 19.8063C75.9703 22.2072 77.3923 22.5627 79.1163 22.5627L79.1115 22.5676Z" fill="#241F21"/>
<path d="M86.9523 13.1685C85.7883 13.1685 84.6049 13.6749 83.928 14.4882V9.87146H81.9654V22.5481H83.928V16.8697C83.928 15.6522 85.126 14.873 86.4117 14.873C87.6974 14.873 88.4084 15.5645 88.4084 16.7674V22.5481H90.371V16.5483C90.371 14.4347 89.0513 13.1685 86.9571 13.1685H86.9523Z" fill="#241F21"/>
<path d="M101.324 13.7431C101.324 11.7464 99.7165 9.87146 97.7052 9.87146H92.28V22.5481H94.1403V17.5807H97.7052C99.7165 17.5807 101.324 15.7739 101.324 13.7431ZM99.6337 13.7577C99.6337 14.9752 98.7035 16.0564 97.5542 16.0564H94.1403V11.4737H97.5542C98.7035 11.4737 99.6337 12.5889 99.6337 13.7577Z" fill="#241F21"/>
<path d="M110.401 22.5481V21.0773C109.978 21.0919 109.69 20.8046 109.69 19.8598C109.69 19.402 109.671 17.8972 109.671 16.5628C109.671 14.3129 108.249 13.1489 106.004 13.1489C103.432 13.1489 102.337 14.7366 102.2 16.3924H103.856C103.973 15.2576 104.82 14.6684 105.95 14.6684C107.148 14.6684 107.913 15.243 107.913 16.5287V16.782L105.785 16.9524C103.315 17.1375 101.966 18.2527 101.966 19.9085C101.966 21.5643 103.267 22.6455 105.044 22.6455C106.364 22.6455 107.582 22.0854 108.088 21.3598C108.361 22.2364 109.067 22.4409 109.832 22.5237C110.036 22.5383 110.221 22.5383 110.406 22.5383L110.401 22.5481ZM107.918 19.5579C107.664 20.4199 106.598 21.165 105.414 21.165C104.601 21.165 103.827 20.6926 103.827 19.8452C103.827 19.0514 104.47 18.4426 106.077 18.3063L107.918 18.1358V19.5579Z" fill="#241F21"/>
<path d="M115.437 22.5676H116.518V20.98H115.437C114.404 20.98 114.103 20.5222 114.103 19.6456V14.7415L116.435 14.7561V13.2172H114.137V9.87146H112.31V13.2172H110.806V14.7366H112.31L112.296 19.8063C112.296 22.2072 113.718 22.5627 115.442 22.5627L115.437 22.5676Z" fill="#241F21"/>
<path d="M123.195 13.1685C122.026 13.1685 120.848 13.6749 120.171 14.4882V9.87146H118.208V22.5481H120.171V16.8697C120.171 15.6522 121.369 14.873 122.654 14.873C123.94 14.873 124.651 15.5645 124.651 16.7674V22.5481H126.614V16.5483C126.614 14.4347 125.294 13.1685 123.2 13.1685H123.195Z" fill="#241F21"/>
<path d="M140.688 13.2854H138.526L136.753 20.2836L134.975 13.2854H133.217L131.425 20.269L129.55 13.2854H127.368L130.261 22.5482H132.443L134.031 16.6701L135.638 22.5482H137.815L140.688 13.2854Z" fill="#241F21"/>
<path d="M149.668 22.5481V21.0773C149.245 21.0919 148.957 20.8046 148.957 19.8598C148.957 19.402 148.943 17.8972 148.943 16.5628C148.943 14.3129 147.521 13.1489 145.275 13.1489C142.704 13.1489 141.608 14.7366 141.472 16.3924H143.128C143.245 15.2576 144.092 14.6684 145.222 14.6684C146.42 14.6684 147.185 15.243 147.185 16.5287V16.782L145.056 16.9524C142.587 17.1375 141.238 18.2527 141.238 19.9085C141.238 21.5643 142.539 22.6455 144.316 22.6455C145.636 22.6455 146.853 22.0854 147.36 21.3598C147.633 22.2364 148.339 22.4409 149.103 22.5237C149.308 22.5383 149.493 22.5383 149.678 22.5383L149.668 22.5481ZM147.185 19.5579C146.931 20.4199 145.865 21.165 144.681 21.165C143.868 21.165 143.094 20.6926 143.094 19.8452C143.094 19.0514 143.737 18.4426 145.344 18.3063L147.185 18.1358V19.5579Z" fill="#241F21"/>
<path d="M163.139 22.6845C165.252 22.6845 166.704 21.4864 166.704 19.777C166.704 17.9362 165.082 17.342 163.694 17.0206C162.545 16.7479 161.532 16.5287 161.532 15.6521C161.532 14.8924 162.311 14.5515 163.188 14.5856C163.83 14.6197 164.726 14.9411 164.911 15.8518H166.553C166.368 14.011 164.843 13.1149 163.056 13.1149C161.093 13.1149 159.559 14.1619 159.559 15.8713C159.559 17.5807 161.132 18.1018 162.569 18.4086C163.801 18.6813 164.785 18.9978 164.785 19.8939C164.785 20.6731 164.162 21.2283 163.11 21.2478C162.043 21.2819 161.113 20.5563 160.947 19.7089H159.291C159.408 21.0433 160.592 22.6845 163.144 22.6845H163.139Z" fill="#241F21"/>
<path d="M19.6521 24.8768L19.6002 32.3449C19.6002 32.4714 19.4965 32.5737 19.3739 32.5737C19.256 32.5737 19.157 32.4763 19.1523 32.3546L18.8222 24.8963C18.8128 24.6577 18.9872 24.4581 19.2183 24.4484C19.4494 24.4386 19.6427 24.6188 19.6521 24.8573C19.6521 24.8671 19.6521 24.8719 19.6521 24.8817" fill="#00B3AA"/>
<path d="M9.35355 29.3946L9.39128 30.8746C9.39128 30.899 9.41014 30.9184 9.43843 30.9184C9.46201 30.9184 9.48087 30.899 9.48087 30.8746L9.51859 29.3946C9.51859 29.346 9.48559 29.307 9.43843 29.307C9.39128 29.307 9.35355 29.3411 9.35355 29.3898" fill="#00B3AA"/>
<path d="M10.6409 27.5252L10.7635 32.009C10.7635 32.0869 10.8248 32.1453 10.9002 32.1453C10.9709 32.1453 11.0275 32.082 11.0322 32.0139L11.1407 27.5301C11.1407 27.3889 11.037 27.2672 10.8955 27.2672C10.7587 27.2672 10.6456 27.3743 10.6409 27.5204C10.6409 27.5204 10.6409 27.5301 10.6409 27.535" fill="#00B3AA"/>
<path d="M22.5993 29.3946L22.5615 30.8746C22.5615 30.899 22.5427 30.9184 22.5144 30.9184C22.4908 30.9184 22.4719 30.899 22.4719 30.8746L22.4342 29.3946C22.4342 29.346 22.4672 29.307 22.5144 29.307C22.5615 29.307 22.5993 29.3411 22.5993 29.3898" fill="#00B3AA"/>
<path d="M21.3072 27.5252L21.1846 32.009C21.1846 32.0869 21.1233 32.1453 21.0479 32.1453C20.9771 32.1453 20.9206 32.082 20.9158 32.0139L20.8074 27.5301C20.8074 27.3889 20.9111 27.2672 21.0526 27.2672C21.1893 27.2672 21.3025 27.3743 21.3072 27.5204C21.3072 27.5204 21.3072 27.5301 21.3072 27.535" fill="#00B3AA"/>
<path d="M18.1762 22.3307L17.9357 31.3663C17.9357 31.5221 17.8084 31.6438 17.6575 31.639C17.5113 31.639 17.3981 31.5124 17.3934 31.3663L17.1718 22.3307C17.1671 22.0434 17.384 21.8049 17.6622 21.8C17.9404 21.7951 18.1715 22.0191 18.1762 22.3063C18.1762 22.3161 18.1762 22.3258 18.1762 22.3355" fill="#00B3AA"/>
<path d="M12.9986 24.9985L12.7958 32.4617C12.7958 32.5883 12.6874 32.6906 12.5648 32.6857C12.4469 32.6857 12.3526 32.5835 12.3479 32.4617L12.1639 24.9985C12.1592 24.76 12.3384 24.5653 12.5695 24.5604C12.8005 24.5555 12.9892 24.7405 12.9939 24.9791C12.9939 24.9839 12.9939 24.9937 12.9939 25.0034" fill="#00B3AA"/>
<path d="M14.7858 22.3259L14.5453 31.3616C14.5453 31.5173 14.418 31.639 14.2671 31.6342C14.1209 31.6342 14.0077 31.5076 14.003 31.3616L13.7814 22.3259C13.7766 22.0386 13.9936 21.8001 14.2718 21.7952C14.55 21.7855 14.781 22.0143 14.7858 22.3015C14.7858 22.3113 14.7858 22.321 14.7858 22.3307" fill="#00B3AA"/>
<path d="M16.3937 21.3131L16.191 28.7763C16.191 28.9029 16.0825 29.0051 15.9599 29.0003C15.842 29.0003 15.7477 28.898 15.743 28.7763L15.5591 21.3131C15.5544 21.0746 15.7336 20.8798 15.9646 20.875C16.1957 20.8701 16.3843 21.0551 16.389 21.2937C16.389 21.2985 16.389 21.3083 16.389 21.318" fill="#00B3AA"/>
<path d="M24.8674 15.4857L31.7284 17.8469C31.8463 17.8858 31.9076 18.0173 31.8699 18.139C31.8321 18.2558 31.7142 18.3191 31.6011 18.2899L24.6269 16.3085C24.4053 16.2452 24.278 16.0066 24.3346 15.7827C24.3959 15.5539 24.6269 15.4224 24.8438 15.4857C24.8533 15.4857 24.858 15.4857 24.8674 15.4906" fill="#00B3AA"/>
<path d="M25.8529 26.9945L27.2299 27.4132C27.2299 27.4132 27.277 27.4083 27.2864 27.384C27.2912 27.3596 27.2817 27.3353 27.2581 27.3304L25.9048 26.8387C25.8624 26.8241 25.8152 26.8485 25.8011 26.8923C25.7869 26.9361 25.8105 26.9848 25.8529 26.9994" fill="#00B3AA"/>
<path d="M24.5232 25.1493L28.6916 26.4151C28.7624 26.4346 28.8378 26.3956 28.8567 26.3226C28.8755 26.2496 28.8378 26.1765 28.7718 26.1522L24.6741 24.6576C24.542 24.6089 24.4006 24.682 24.3534 24.8134C24.3063 24.9497 24.377 25.0958 24.5043 25.1444C24.5043 25.1444 24.5137 25.1444 24.5185 25.1444" fill="#00B3AA"/>
<path d="M29.946 13.9861L31.2993 14.4827C31.2993 14.4827 31.3323 14.5168 31.3276 14.5411C31.3181 14.5655 31.2946 14.5752 31.2757 14.5703L29.8988 14.1468C29.8564 14.1322 29.8328 14.0884 29.8422 14.0397C29.8564 13.9959 29.9035 13.9715 29.946 13.9813" fill="#00B3AA"/>
<path d="M27.8193 14.6726L31.9123 16.1769C31.983 16.2013 32.016 16.2792 31.9925 16.3522C31.9689 16.4204 31.8982 16.4593 31.8274 16.4398L27.6637 15.1643C27.5316 15.1254 27.4562 14.9793 27.4939 14.843C27.5316 14.7067 27.6731 14.6288 27.8051 14.6677C27.8051 14.6677 27.8146 14.6677 27.8193 14.6726Z" fill="#00B3AA"/>
<path d="M22.0664 16.1428L30.3138 19.171C30.4552 19.2245 30.526 19.3852 30.4788 19.5264C30.4316 19.6675 30.2855 19.7406 30.1487 19.7016L21.7552 17.1263C21.4912 17.0435 21.3355 16.7563 21.4157 16.4788C21.4959 16.2061 21.7741 16.0455 22.0429 16.1282C22.0523 16.1282 22.0617 16.1331 22.0664 16.138" fill="#00B3AA"/>
<path d="M22.9246 22.0531L29.7385 24.5554C29.8564 24.5992 29.9177 24.7307 29.8752 24.8524C29.8375 24.9692 29.7149 25.0276 29.6017 24.9935L22.67 22.8661C22.4484 22.7979 22.3258 22.5594 22.3918 22.3306C22.4578 22.1017 22.6889 21.9752 22.9105 22.0433C22.9152 22.0433 22.9247 22.0433 22.9294 22.0482" fill="#00B3AA"/>
<path d="M21.0149 19.4728L29.2622 22.5009C29.4037 22.5545 29.4791 22.7151 29.4273 22.8563C29.3801 22.9975 29.2339 23.0705 29.0972 23.0316L20.7037 20.4562C20.4396 20.3735 20.284 20.0862 20.3642 19.8087C20.4443 19.5361 20.7226 19.3754 20.9913 19.4582C21.0008 19.4582 21.0102 19.4631 21.0149 19.4679" fill="#00B3AA"/>
<path d="M20.5811 17.5791L27.3949 20.0814C27.5128 20.1252 27.5694 20.2567 27.5316 20.3784C27.4939 20.4952 27.3713 20.5585 27.2581 20.5196L20.3264 18.3921C20.1048 18.3239 19.9822 18.0854 20.0482 17.8614C20.1142 17.6326 20.3453 17.506 20.5669 17.5742C20.5716 17.5742 20.5811 17.5742 20.5858 17.5791" fill="#00B3AA"/>
<path d="M17.8413 7.43823L22.1371 1.43068C22.2126 1.32844 22.3493 1.30897 22.4483 1.38199C22.5427 1.45502 22.5662 1.59133 22.5002 1.69357L18.5204 7.92994C18.3931 8.12954 18.1337 8.18309 17.9451 8.05165C17.7518 7.9202 17.6999 7.65244 17.8272 7.45771C17.8272 7.45284 17.8366 7.4431 17.8413 7.43823Z" fill="#00B3AA"/>
<path d="M28.7482 10.0331L29.5593 8.81116C29.5593 8.81116 29.5687 8.76248 29.5451 8.74787C29.5262 8.73327 29.498 8.73814 29.4838 8.75761L28.6114 9.93575C28.5832 9.9747 28.5926 10.0283 28.6256 10.0575C28.6633 10.0867 28.7152 10.0769 28.7435 10.0429" fill="#00B3AA"/>
<path d="M26.6404 10.7682L29.0924 7.06825C29.1349 7.00496 29.1207 6.91733 29.0594 6.87838C28.9981 6.83457 28.9227 6.84917 28.8755 6.90759L26.2349 10.4664C26.15 10.5783 26.1736 10.739 26.282 10.8266C26.3905 10.9143 26.5461 10.8899 26.631 10.7779C26.631 10.7779 26.631 10.7682 26.6357 10.7682" fill="#00B3AA"/>
<path d="M18.0347 1.99554L18.9118 0.822265C18.9118 0.822265 18.9542 0.797923 18.9731 0.812528C18.9919 0.827133 18.9966 0.856343 18.9825 0.875817L18.1667 2.09778C18.1384 2.13672 18.0913 2.14646 18.0535 2.11725C18.0158 2.09291 18.0064 2.03935 18.0347 2.00041" fill="#00B3AA"/>
<path d="M18.0111 4.29322L20.6565 0.739317C20.7036 0.680897 20.7838 0.666292 20.8451 0.714975C20.9017 0.758791 20.9158 0.841553 20.8734 0.899973L18.4119 4.59506C18.3318 4.7119 18.1761 4.74111 18.063 4.66322C17.9498 4.58045 17.9215 4.42467 17.997 4.30296C17.997 4.30296 18.0017 4.29809 18.0064 4.29322" fill="#00B3AA"/>
<path d="M17.5867 10.3933L22.9246 3.23194C23.0142 3.11023 23.184 3.08589 23.3066 3.17839C23.4197 3.27088 23.4433 3.43641 23.3632 3.55812L18.3978 11.0018C18.2422 11.2355 17.9262 11.2988 17.6952 11.1333C17.4688 10.9726 17.4075 10.6465 17.5679 10.4128C17.5679 10.4079 17.5773 10.3982 17.582 10.3884" fill="#00B3AA"/>
<path d="M23.2971 11.3767L27.7108 5.46165C27.7863 5.35941 27.9277 5.33994 28.0267 5.41783C28.1211 5.49086 28.1399 5.63204 28.0739 5.72941L23.9715 11.8781C23.8394 12.0729 23.5848 12.1216 23.3915 11.9901C23.2028 11.8538 23.1557 11.5909 23.283 11.3913C23.283 11.3864 23.2924 11.3767 23.2971 11.3718" fill="#00B3AA"/>
<path d="M20.3264 12.4575L25.6643 5.29614C25.7539 5.17443 25.9284 5.15009 26.0462 5.24746C26.1594 5.33996 26.183 5.50548 26.1028 5.62719L21.1375 13.0709C20.9819 13.3046 20.6659 13.3679 20.4396 13.2024C20.2132 13.0417 20.1519 12.7155 20.3123 12.4818C20.3123 12.477 20.3217 12.4672 20.3264 12.4575Z" fill="#00B3AA"/>
<path d="M18.4497 12.3018L22.8633 6.38183C22.9388 6.27959 23.0802 6.26012 23.1793 6.34288C23.2736 6.41591 23.2924 6.55709 23.2264 6.65446L19.124 12.8032C18.9919 12.9979 18.7373 13.0466 18.5487 12.9152C18.3601 12.7789 18.3129 12.516 18.4402 12.3164C18.4402 12.3115 18.4497 12.3018 18.4544 12.2969" fill="#00B3AA"/>
<path d="M14.1681 7.47241L9.877 1.46486C9.80155 1.36262 9.66481 1.34315 9.56578 1.41617C9.47147 1.4892 9.44789 1.62551 9.51391 1.72775L13.4938 7.96412C13.6211 8.16372 13.8804 8.21727 14.069 8.08583C14.2624 7.95438 14.3142 7.68662 14.1869 7.49189C14.1869 7.48702 14.1775 7.47728 14.1728 7.47241" fill="#00B3AA"/>
<path d="M3.26592 10.0672L2.45487 8.84522C2.45487 8.84522 2.44543 8.79653 2.46901 8.78193C2.48787 8.76732 2.51617 8.77219 2.53031 8.79167L3.40267 9.96981C3.43096 10.0088 3.42153 10.0623 3.38853 10.0915C3.3508 10.1207 3.29893 10.111 3.27064 10.0769" fill="#00B3AA"/>
<path d="M5.37371 10.7974L2.92168 7.09742C2.87924 7.03413 2.89339 6.9465 2.95469 6.90756C3.01599 6.86374 3.09144 6.87835 3.13859 6.93677L5.77924 10.4955C5.86412 10.6075 5.84054 10.7682 5.73209 10.8558C5.62363 10.9434 5.46802 10.9191 5.38315 10.8071C5.38315 10.8071 5.38315 10.7974 5.37843 10.7974" fill="#00B3AA"/>
<path d="M13.9794 2.02948L13.1024 0.8562C13.1024 0.8562 13.0599 0.831859 13.0411 0.846464C13.0222 0.861069 13.0175 0.890279 13.0316 0.909752L13.8474 2.13171C13.8757 2.17066 13.9228 2.18039 13.9606 2.15118C13.9983 2.12684 14.0077 2.07329 13.9794 2.03434" fill="#00B3AA"/>
<path d="M14.003 4.3274L11.3529 0.773497C11.3058 0.715077 11.2256 0.700472 11.1643 0.749155C11.1077 0.79297 11.0936 0.875733 11.136 0.934153L13.5975 4.62924C13.6776 4.74608 13.8333 4.77529 13.9464 4.6974C14.0596 4.61463 14.0879 4.45885 14.0124 4.33714C14.0124 4.33714 14.0077 4.33227 14.003 4.3274Z" fill="#00B3AA"/>
<path d="M14.4274 10.4275L9.08951 3.26612C8.99991 3.14441 8.83016 3.12007 8.70755 3.21257C8.59438 3.30506 8.57081 3.47059 8.65097 3.5923L13.6163 11.036C13.7719 11.2697 14.0879 11.333 14.3189 11.1675C14.5453 11.0068 14.6066 10.6806 14.4463 10.4469C14.4463 10.4421 14.4368 10.4323 14.4321 10.4226" fill="#00B3AA"/>
<path d="M8.71697 11.4109L4.30331 5.49583C4.22786 5.39359 4.0864 5.37412 3.98738 5.45201C3.89307 5.52504 3.8742 5.66622 3.94022 5.76359L8.04266 11.9123C8.1747 12.1071 8.42933 12.1557 8.62266 12.0243C8.81128 11.888 8.85844 11.6251 8.73112 11.4255C8.73112 11.4206 8.72169 11.4109 8.71697 11.406" fill="#00B3AA"/>
<path d="M11.683 12.4917L6.3451 5.33032C6.2555 5.20861 6.08103 5.18427 5.96315 5.28164C5.84998 5.37414 5.8264 5.53966 5.90656 5.66137L10.8719 13.1051C11.0275 13.3388 11.3435 13.4021 11.5698 13.2365C11.7962 13.0759 11.8575 12.7497 11.6971 12.516C11.6971 12.5112 11.6877 12.5014 11.683 12.4917Z" fill="#00B3AA"/>
<path d="M13.5645 12.3309L9.15081 6.411C9.07536 6.30877 8.9339 6.28929 8.83487 6.37206C8.74056 6.44508 8.7217 6.58626 8.78772 6.68363L12.8902 12.8324C13.0222 13.0271 13.2768 13.0758 13.4654 12.9443C13.6541 12.808 13.7012 12.5451 13.5739 12.3455C13.5739 12.3407 13.5645 12.3309 13.5598 12.3261" fill="#00B3AA"/>
<path d="M7.12789 15.4856L0.266912 17.8419C0.149025 17.8808 0.0877244 18.0123 0.125448 18.134C0.163172 18.2508 0.281058 18.3141 0.394229 18.2849L7.36838 16.3035C7.59001 16.2402 7.71732 16.0016 7.66074 15.7777C7.59944 15.5489 7.36838 15.4174 7.15147 15.4807C7.14204 15.4807 7.13732 15.4807 7.12789 15.4856Z" fill="#00B3AA"/>
<path d="M6.14704 26.9945L4.77013 27.4132C4.77013 27.4132 4.72297 27.4083 4.71354 27.384C4.70883 27.3596 4.71826 27.3353 4.74184 27.3304L6.09517 26.8387C6.13761 26.8241 6.18476 26.8485 6.19891 26.8923C6.21306 26.9361 6.18948 26.9848 6.14704 26.9994" fill="#00B3AA"/>
<path d="M7.47681 25.1493L3.30835 26.4151C3.23762 26.4346 3.16218 26.3956 3.14331 26.3226C3.12445 26.2496 3.16218 26.1765 3.22819 26.1522L7.32592 24.6576C7.45795 24.6089 7.59942 24.682 7.64657 24.8134C7.69372 24.9497 7.62299 25.0958 7.49568 25.1444C7.49568 25.1444 7.48624 25.1444 7.48153 25.1444" fill="#00B3AA"/>
<path d="M2.05406 13.9861L0.700728 14.4827C0.700728 14.4827 0.66772 14.5168 0.672435 14.5411C0.681866 14.5655 0.705443 14.5752 0.724305 14.5703L2.10122 14.1468C2.14366 14.1322 2.16723 14.0884 2.1578 14.0397C2.14366 13.9959 2.0965 13.9715 2.05406 13.9813" fill="#00B3AA"/>
<path d="M4.18072 14.6726L0.0877107 16.1769C0.0169789 16.2013 -0.0160293 16.2792 0.007548 16.3522C0.0311253 16.4204 0.101857 16.4593 0.172589 16.4398L4.33633 15.1643C4.46837 15.1254 4.54381 14.9793 4.50609 14.843C4.46837 14.7067 4.3269 14.6288 4.19487 14.6677C4.19487 14.6677 4.18544 14.6677 4.18072 14.6726Z" fill="#00B3AA"/>
<path d="M9.92887 16.1428L1.68154 19.171C1.54008 19.2245 1.46935 19.3852 1.5165 19.5264C1.56366 19.6675 1.70983 19.7406 1.84658 19.7016L10.2401 17.1263C10.5042 17.0435 10.6598 16.7563 10.5796 16.4788C10.4994 16.2061 10.2212 16.0455 9.95244 16.1282C9.94301 16.1282 9.93358 16.1331 9.92887 16.138" fill="#00B3AA"/>
<path d="M9.07536 22.0531L2.26153 24.5554C2.14365 24.5992 2.08234 24.7307 2.12478 24.8524C2.16251 24.9692 2.28511 25.0276 2.39828 24.9935L9.32999 22.8661C9.55162 22.7979 9.67422 22.5594 9.6082 22.3306C9.54219 22.1017 9.31113 21.9752 9.08951 22.0433C9.08479 22.0433 9.07536 22.0433 9.07064 22.0482" fill="#00B3AA"/>
<path d="M10.9851 19.4728L2.7378 22.5009C2.59634 22.5545 2.52089 22.7151 2.57276 22.8563C2.61991 22.9975 2.76609 23.0705 2.90284 23.0316L11.2963 20.4562C11.5604 20.3735 11.716 20.0862 11.6359 19.8087C11.5557 19.5361 11.2775 19.3754 11.0087 19.4582C10.9993 19.4582 10.9898 19.4631 10.9851 19.4679" fill="#00B3AA"/>
<path d="M11.4189 17.5791L4.60511 20.0814C4.48722 20.1252 4.43064 20.2567 4.46836 20.3784C4.50608 20.4952 4.62869 20.5585 4.74186 20.5196L11.6736 18.3921C11.8952 18.3239 12.0178 18.0854 11.9518 17.8614C11.8858 17.6326 11.6547 17.506 11.4331 17.5742C11.4284 17.5742 11.4189 17.5742 11.4142 17.5791" fill="#00B3AA"/>
</svg>
