<svg width="28" height="29" viewBox="0 0 28 29" fill="none" xmlns="http://www.w3.org/2000/svg">
<g id="Streamliners icon">
<g id="Vector">
<path fill-rule="evenodd" clip-rule="evenodd" d="M5 13.9109C5.04185 13.4091 5.12446 12.9191 5.24512 12.4444C7.43167 13.0385 10.3563 13.6245 12.6499 13.9104C16.1534 14.3515 20.7635 14.479 22.9989 14.5154C22.9995 14.5648 23 14.6141 23 14.6635C23 14.7188 23 14.7736 22.9984 14.8284C20.9287 14.772 16.5991 14.6733 13.6864 14.5957C10.6998 14.5317 7.32895 14.1855 5.00054 13.9104L5 13.9109Z" fill="#555E68"/>
<path fill-rule="evenodd" clip-rule="evenodd" d="M22.9815 15.2365C22.9772 15.301 22.9728 15.3656 22.9674 15.4302C20.7276 15.466 16.1387 15.5935 12.6499 16.0357C10.4145 16.3146 7.57462 16.8805 5.4109 17.4589C5.26904 17.0232 5.15925 16.5723 5.08479 16.11C7.39036 15.7796 10.7275 15.3688 13.6864 15.3048C17.4328 15.2169 21.1363 15.2256 22.9821 15.2365H22.9815Z" fill="#555E68"/>
<path fill-rule="evenodd" clip-rule="evenodd" d="M22.9196 15.8702C20.8091 15.9413 17.8546 16.1632 13.1114 17.1257C10.5275 17.652 8.11921 18.5901 6.31801 19.4078C6.5702 19.8142 6.85392 20.1983 7.16589 20.5581C10.4172 18.3688 14.5897 17.3986 16.4453 17.002C18.8758 16.4969 21.3494 16.2815 22.8696 16.1984C22.888 16.0894 22.9049 15.9803 22.9196 15.8702Z" fill="#555E68"/>
<path fill-rule="evenodd" clip-rule="evenodd" d="M22.7918 16.5945C21.2173 16.7345 18.3883 17.0742 14.8343 18.3964C12.3825 19.2993 10.3313 20.7816 8.86382 22.0784C9.16166 22.284 9.47255 22.4717 9.79485 22.641C12.4673 20.0253 15.8621 18.5999 17.4578 17.9808C19.2286 17.3107 21.2999 16.9629 22.7489 16.7796C22.7636 16.7182 22.7777 16.6569 22.7913 16.5951L22.7918 16.5945Z" fill="#555E68"/>
<path fill-rule="evenodd" clip-rule="evenodd" d="M22.5864 17.3704C21.0613 17.6818 18.6807 18.3308 15.8257 19.9813C14.2576 20.8793 12.9885 22.1603 12.0086 23.4516C12.6461 23.5938 13.3092 23.6692 13.9902 23.6692C18.0252 23.6692 21.4379 21.0247 22.5864 17.3704Z" fill="#555E68"/>
<path fill-rule="evenodd" clip-rule="evenodd" d="M6.04083 10.4053C7.86702 11.2588 10.3911 12.2642 13.1114 12.8198C17.8986 13.7997 20.8711 14.014 22.9804 14.0753C22.9734 13.9684 22.9647 13.8626 22.9543 13.7568C21.4483 13.6733 18.9258 13.4671 16.4453 12.9435C14.5207 12.542 10.1492 11.5111 6.84957 9.16338C6.54738 9.55295 6.27671 9.96802 6.04083 10.4053Z" fill="#555E68"/>
<path fill-rule="evenodd" clip-rule="evenodd" d="M8.48879 7.5324C9.97856 8.90078 12.1722 10.5665 14.8343 11.5599C18.4747 12.9093 21.3455 13.2262 22.9049 13.3575C22.8962 13.2989 22.8869 13.2409 22.8777 13.1828C21.4341 13.0075 19.284 12.6587 17.4589 11.9647C15.7773 11.3256 12.1309 9.77867 9.40896 6.91169C9.08937 7.09996 8.78229 7.30723 8.48934 7.53185L8.48879 7.5324Z" fill="#555E68"/>
<path fill-rule="evenodd" clip-rule="evenodd" d="M11.6281 5.98063C12.6559 7.44342 14.0489 8.94853 15.8257 9.97563C18.8003 11.6771 21.2515 12.3234 22.7657 12.6196C21.8396 8.63546 18.2633 5.66919 13.9902 5.66919C13.1728 5.66919 12.3809 5.7777 11.6287 5.98063H11.6281Z" fill="#555E68"/>
</g>
</g>
</svg>
